<svg id="visual" viewBox="0 0 900 600" width="900" height="600" xmlns="http://www.w3.org/2000/svg" xmlns:xlink="http://www.w3.org/1999/xlink" version="1.1"><rect x="0" y="0" width="900" height="600" fill="#001220"></rect><path d="M0 363L21.5 360.8C43 358.7 86 354.3 128.8 364.3C171.7 374.3 214.3 398.7 257.2 408.5C300 418.3 343 413.7 385.8 406.5C428.7 399.3 471.3 389.7 514.2 391.5C557 393.3 600 406.7 642.8 415C685.7 423.3 728.3 426.7 771.2 426.3C814 426 857 422 878.5 420L900 418L900 601L878.5 601C857 601 814 601 771.2 601C728.3 601 685.7 601 642.8 601C600 601 557 601 514.2 601C471.3 601 428.7 601 385.8 601C343 601 300 601 257.2 601C214.3 601 171.7 601 128.8 601C86 601 43 601 21.5 601L0 601Z" fill="#69faf6"></path><path d="M0 475L21.5 473.8C43 472.7 86 470.3 128.8 468.8C171.7 467.3 214.3 466.7 257.2 455.8C300 445 343 424 385.8 424.3C428.7 424.7 471.3 446.3 514.2 450.5C557 454.7 600 441.3 642.8 442.7C685.7 444 728.3 460 771.2 467.8C814 475.7 857 475.3 878.5 475.2L900 475L900 601L878.5 601C857 601 814 601 771.2 601C728.3 601 685.7 601 642.8 601C600 601 557 601 514.2 601C471.3 601 428.7 601 385.8 601C343 601 300 601 257.2 601C214.3 601 171.7 601 128.8 601C86 601 43 601 21.5 601L0 601Z" fill="#50e0d4"></path><path d="M0 440L21.5 443.3C43 446.7 86 453.3 128.8 460.2C171.7 467 214.3 474 257.2 480.5C300 487 343 493 385.8 487.7C428.7 482.3 471.3 465.7 514.2 456.7C557 447.7 600 446.3 642.8 444.3C685.7 442.3 728.3 439.7 771.2 440.7C814 441.7 857 446.3 878.5 448.7L900 451L900 601L878.5 601C857 601 814 601 771.2 601C728.3 601 685.7 601 642.8 601C600 601 557 601 514.2 601C471.3 601 428.7 601 385.8 601C343 601 300 601 257.2 601C214.3 601 171.7 601 128.8 601C86 601 43 601 21.5 601L0 601Z" fill="#38c6b3"></path><path d="M0 496L21.5 503.2C43 510.3 86 524.7 128.8 529.7C171.7 534.7 214.3 530.3 257.2 527.7C300 525 343 524 385.8 519.2C428.7 514.3 471.3 505.7 514.2 501.8C557 498 600 499 642.8 506.5C685.7 514 728.3 528 771.2 532.5C814 537 857 532 878.5 529.5L900 527L900 601L878.5 601C857 601 814 601 771.2 601C728.3 601 685.7 601 642.8 601C600 601 557 601 514.2 601C471.3 601 428.7 601 385.8 601C343 601 300 601 257.2 601C214.3 601 171.7 601 128.8 601C86 601 43 601 21.5 601L0 601Z" fill="#20ad92"></path><path d="M0 572L21.5 570.2C43 568.3 86 564.7 128.8 563.3C171.7 562 214.3 563 257.2 557.5C300 552 343 540 385.8 541.3C428.7 542.7 471.3 557.3 514.2 562.8C557 568.3 600 564.7 642.8 561C685.7 557.3 728.3 553.7 771.2 554.2C814 554.7 857 559.3 878.5 561.7L900 564L900 601L878.5 601C857 601 814 601 771.2 601C728.3 601 685.7 601 642.8 601C600 601 557 601 514.2 601C471.3 601 428.7 601 385.8 601C343 601 300 601 257.2 601C214.3 601 171.7 601 128.8 601C86 601 43 601 21.5 601L0 601Z" fill="#009473"></path></svg>