<svg id="visual" viewBox="0 0 900 600" width="900" height="600" xmlns="http://www.w3.org/2000/svg" xmlns:xlink="http://www.w3.org/1999/xlink" version="1.1"><rect x="0" y="0" width="900" height="600" fill="#0d8330"></rect><path d="M0 520L21.5 508.8C43 497.7 86 475.3 128.8 461.2C171.7 447 214.3 441 257.2 451.7C300 462.3 343 489.7 385.8 482.3C428.7 475 471.3 433 514.2 429.5C557 426 600 461 642.8 469.8C685.7 478.7 728.3 461.3 771.2 447.3C814 433.3 857 422.7 878.5 417.3L900 412L900 601L878.5 601C857 601 814 601 771.2 601C728.3 601 685.7 601 642.8 601C600 601 557 601 514.2 601C471.3 601 428.7 601 385.8 601C343 601 300 601 257.2 601C214.3 601 171.7 601 128.8 601C86 601 43 601 21.5 601L0 601Z" fill="#FFFFFF" stroke-linecap="round" stroke-linejoin="miter"></path></svg>